{
	"asset":{
		"generator":"Khronos glTF Blender I/O v4.3.47",
		"version":"2.0"
	},
	"extensionsUsed":[
		"KHR_materials_unlit"
	],
	"scene":0,
	"scenes":[
		{
			"name":"Scene",
			"nodes":[
				0
			]
		}
	],
	"nodes":[
		{
			"mesh":0,
			"name":"Bolita fuego_Material #25_0",
			"rotation":[
				-0.70710688829422,
				0,
				0,
				0.7071066498756409
			],
			"scale":[
				0.8152780532836914,
				0.8674754500389099,
				0.8871859312057495
			],
			"translation":[
				0.470428466796875,
				-0.37921151518821716,
				1.2095873355865479
			]
		}
	],
	"materials":[
		{
			"alphaMode":"BLEND",
			"doubleSided":true,
			"extensions":{
				"KHR_materials_unlit":{}
			},
			"name":"Material_25",
			"pbrMetallicRoughness":{
				"baseColorFactor":[
					1,
					1,
					1,
					0.8614710569381714
				],
				"baseColorTexture":{
					"index":0
				},
				"metallicFactor":0,
				"roughnessFactor":0.9
			}
		}
	],
	"meshes":[
		{
			"name":"Bolita fuego_Material #25_0",
			"primitives":[
				{
					"attributes":{
						"POSITION":0,
						"NORMAL":1,
						"TEXCOORD_0":2,
						"TANGENT":3
					},
					"indices":4,
					"material":0
				}
			]
		}
	],
	"textures":[
		{
			"sampler":0,
			"source":0
		}
	],
	"images":[
		{
			"mimeType":"image/png",
			"name":"Material_25_baseColor.png",
			"uri":"textures/Material_25_baseColor.png"
		}
	],
	"accessors":[
		{
			"bufferView":0,
			"componentType":5126,
			"count":910,
			"max":[
				-0.19263654947280884,
				1.693886160850525,
				0.7906575798988342
			],
			"min":[
				-0.9117916822433472,
				1.0187194347381592,
				0.08152526617050171
			],
			"type":"VEC3"
		},
		{
			"bufferView":1,
			"componentType":5126,
			"count":910,
			"type":"VEC3"
		},
		{
			"bufferView":2,
			"componentType":5126,
			"count":910,
			"type":"VEC2"
		},
		{
			"bufferView":3,
			"componentType":5126,
			"count":910,
			"type":"VEC4"
		},
		{
			"bufferView":4,
			"componentType":5123,
			"count":4800,
			"type":"SCALAR"
		}
	],
	"bufferViews":[
		{
			"buffer":0,
			"byteLength":10920,
			"byteOffset":0,
			"target":34962
		},
		{
			"buffer":0,
			"byteLength":10920,
			"byteOffset":10920,
			"target":34962
		},
		{
			"buffer":0,
			"byteLength":7280,
			"byteOffset":21840,
			"target":34962
		},
		{
			"buffer":0,
			"byteLength":14560,
			"byteOffset":29120,
			"target":34962
		},
		{
			"buffer":0,
			"byteLength":9600,
			"byteOffset":43680,
			"target":34963
		}
	],
	"samplers":[
		{
			"magFilter":9729,
			"minFilter":9987
		}
	],
	"buffers":[
		{
			"byteLength":53280,
			"uri":"fireball.bin"
		}
	]
}
